<svg xmlns="http://www.w3.org/2000/svg" xmlns:xlink="http://www.w3.org/1999/xlink" version="1.1" id="Layer_1" x="0px" y="0px" viewBox="0 0 100 138" style="enable-background:new 0 0 100 138;" xml:space="preserve">
<style type="text/css">
	.st0{fill:#FFFFFF;}
</style>
<path class="st0" d="M100,39.5L100,39.5V0.4L75,23.7L49.5,0.4L25,23.7L0,0.4v39.1v0.4v18.7v16.1v41.9v3.6v3.6  c0,7.6,6.2,13.8,13.9,13.8h0.3c7.6,0,13.8-6.2,13.8-13.8v-3.6v-3.6v-16.4h44v16.4v3.6v3.6c0,7.6,6.2,13.8,13.9,13.8h0.3  c7.7,0,13.9-6.2,13.9-13.8v-3.6v-3.6V74.7V58.6L100,39.5L100,39.5z M28,74.7V63.5c0-12.1,9.9-21.9,22-21.9s22,9.8,22,21.9v11.2  C72,74.7,28,74.7,28,74.7z"/>
</svg>